<svg xmlns="http://www.w3.org/2000/svg" xmlns:xlink="http://www.w3.org/1999/xlink" width="500" zoomAndPan="magnify" viewBox="0 0 375 374.999991" height="500" preserveAspectRatio="xMidYMid meet" version="1.2"><defs><clipPath id="17de017659"><path d="M 130 12 L 371.113281 12 L 371.113281 351 L 130 351 Z M 130 12 "/></clipPath><clipPath id="f223b88aad"><path d="M 3.613281 12 L 330 12 L 330 362.886719 L 3.613281 362.886719 Z M 3.613281 12 "/></clipPath><clipPath id="a0c4a799bf"><path d="M 0 371.335938 L 3.613281 371.335938 L 3.613281 375 L 0 375 Z M 0 371.335938 "/></clipPath></defs><g id="a6bc640b52"><g clip-rule="nonzero" clip-path="url(#17de017659)"><path style=" stroke:none;fill-rule:nonzero;fill:#dadada;fill-opacity:1;" d="M 371.097656 67.074219 L 371.097656 67.023438 C 371.097656 36.707031 346.640625 12.078125 316.332031 12.078125 L 130.511719 12.078125 L 130.511719 116.742188 L 364.21875 350.449219 L 364.21875 105.671875 L 250.773438 105.671875 L 309.226562 164.230469 L 309.226562 217.894531 L 185.507812 94.019531 L 185.507812 67.074219 Z M 371.097656 67.074219 "/></g><g clip-rule="nonzero" clip-path="url(#f223b88aad)"><path style=" stroke:none;fill-rule:nonzero;fill:#dadada;fill-opacity:1;" d="M 58.335938 67.074219 L 94.027344 67.074219 L 94.027344 12.078125 L 58.378906 12.078125 C 28.070312 12.078125 3.613281 36.652344 3.613281 66.964844 L 3.613281 114.003906 L 197.257812 307.921875 L 58.335938 307.921875 L 58.335938 268 L 97.007812 268 L 38.0625 208.929688 L 3.613281 174.363281 L 3.613281 307.839844 C 3.613281 338.144531 28.070312 362.632812 58.378906 362.632812 L 329.710938 362.632812 L 58.335938 91.273438 Z M 58.335938 67.074219 "/></g><g clip-rule="nonzero" clip-path="url(#a0c4a799bf)"><path style=" stroke:none;fill-rule:nonzero;fill:#dadada;fill-opacity:1;" d="M -108.886719 371.335938 L 3.613281 371.335938 L 3.613281 483.835938 L -108.886719 483.835938 Z M -108.886719 371.335938 "/></g></g></svg>